:SAMPLES-PER-SECOND 30
:FULLY-SPECIFIED
:DEGREES
120
root  6.978200177 37.33888761 7.1295558 -17.83398438 -69.29499817 15.13201904
lowerback  15.88650036 2.605350018 -3.614439964
upperback  3.661530018 2.737499952 0.4298579991
thorax  -5.186120033 1.331110001 1.95291996
lowerneck  -7.563169956 14.57240009 0.6594030261
upperneck  8.87485981 20.58429909 -9.743049622
head  5.0071702 9.580659866 -1.584429979
lclavicle  0 -9.442270133e-015 7.951389973e-016
lhumerus  -18.11720085 -1.824149966 23.17099953
lradius  1.139127214e-031 -3.342339484e-031 108.8199997
lwrist  -7.062250077e-031 1.324171889e-031 31.73769951
lhand  -1.496451383e-031 -27.76390076 20.11240005
lfingers  90 7.125020027 -90
lthumb  89.89689403 5.08795885 91.16245106
rclavicle  0 -9.442270133e-015 7.951389973e-016
rhumerus  -20.70190048 28.71039963 -71.623703
rradius  -2.136092996e-031 2.811752256e-031 127.223999
rwrist  7.062250077e-031 1.765562519e-031 -14.50300026
rhand  -7.920061211e-032 -33.2840004 9.303460121
rfingers  -90 -7.125020027 -90
rthumb  -92.93752616 -24.25625642 -97.11982154
rfemur  -16.00519943 29.37689972 -3.229049921
rtibia  -0 0 60.12960052
rfoot  -0 -18.98450089 -7.470870018
rtoes  5.373923086 19.29304026 -105.8922705
lfemur  -14.47579956 -3.126049995 1.08702004
ltibia  -0 0 48.98939896
lfoot  4.445930613e-032 -6.881090164 4.344940186
ltoes  -4.250644065 -19.5611806 -102.515957
121
root  6.964466515 37.16266662 7.24713333 -14.39697266 -66.52999878 11.19598389
lowerback  15.52700043 1.781999946 -3.68234992
upperback  3.684710026 1.69224 0.90111202
thorax  -4.915609837 0.8198609948 2.711930037
lowerneck  -7.901199818 14.81669998 0.1255860031
upperneck  9.376399994 21.00839996 -9.519980431
head  5.162650108 9.741330147 -1.372920036
lclavicle  0 -9.442270133e-015 7.951389973e-016
lhumerus  -13.09309959 0.1743610054 23.03960037
lradius  6.720159496e-032 -3.4665889e-031 100.9710007
lwrist  -1.412450015e-030 3.089734409e-031 33.20750046
lhand  -1.496451383e-031 -27.76390076 20.11240005
lfingers  90 7.125020027 -90
lthumb  89.89689403 5.08795885 91.16245106
rclavicle  0 -9.442270133e-015 7.951389973e-016
rhumerus  -22.3029995 29.29770088 -70.75140381
rradius  -2.119468925e-031 2.82430443e-031 126.8860016
rwrist  7.062250077e-031 -1.765562519e-031 -15.21319962
rhand  -7.920061211e-032 -33.2840004 9.303460121
rfingers  -90 -7.125020027 -90
rthumb  -92.93752616 -24.25625642 -97.11982154
rfemur  -14.39500046 28.94009972 -1.769549966
rtibia  -0 0 61.06520081
rfoot  -4.655115747e-032 -18.52519989 -6.464220047
rtoes  5.373923086 19.29304026 -105.8922705
lfemur  -15.8373003 -4.176499844 1.90467
ltibia  -0 0 49.76409912
lfoot  4.456419652e-032 -7.920509815 3.784889936
ltoes  -4.250644065 -19.5611806 -102.515957
122
root  6.923689054 36.99977905 7.353199936 -11.27197266 -62.85800171 7.807983398
lowerback  14.7553997 0.7791540027 -3.767260075
upperback  3.667979956 0.4180069864 1.270320058
thorax  -4.419620037 0.1904689968 3.400520086
lowerneck  -8.198169708 14.93239975 -0.5054349899
upperneck  9.884090424 21.21529961 -8.872989655
head  5.242040157 9.822799683 -1.057029963
lclavicle  0 -9.442270133e-015 7.951389973e-016
lhumerus  -7.076680183 2.08788991 23.59910011
lradius  1.174816712e-032 -3.529170171e-031 91.90660095
lwrist  -1.412450015e-030 3.531125038e-031 33.41690063
lhand  -1.496451383e-031 -27.76390076 20.11240005
lfingers  90 7.125020027 -90
lthumb  89.89689403 5.08795885 91.16245106
rclavicle  0 -9.442270133e-015 7.951389973e-016
rhumerus  -24.13780022 29.59379959 -70.19940186
rradius  -2.112561557e-031 2.829474811e-031 126.7460022
rwrist  7.062250077e-031 -1.765562519e-031 -15.85859966
rhand  -7.920061211e-032 -33.2840004 9.303460121
rfingers  -90 -7.125020027 -90
rthumb  -92.93752616 -24.25625642 -97.11982154
rfemur  -12.63869953 27.91810036 -0.2419479936
rtibia  -0 0 61.88729858
rfoot  -4.634640694e-032 -17.75429916 -5.614190102
rtoes  5.373923086 19.29304026 -105.8922705
lfemur  -17.81920052 -5.238170147 2.713310003
ltibia  -0 0 50.41400146
lfoot  4.466706585e-032 -8.81842041 2.92840004
ltoes  -4.250644065 -19.5611806 -102.515957
123
root  6.854999722 36.84155622 7.457288607 -9.007995605 -58.65399933 5.234008789
lowerback  13.82120037 -0.240704 -4.236199856
upperback  3.718420029 -0.9298220277 1.704229951
thorax  -3.722929955 -0.4863939881 4.349199772
lowerneck  -8.392390251 14.9698 -1.229449987
upperneck  10.29669952 21.30340004 -8.157170296
head  5.251009941 9.858160019 -0.7353339791
lclavicle  0 -9.442270133e-015 7.951389973e-016
lhumerus  -0.2252880037 3.956820011 24.99410057
lradius  -4.996633254e-032 -3.495594456e-031 81.86519623
lwrist  0 3.531125038e-031 31.99710083
lhand  -1.496451383e-031 -27.76390076 20.11240005
lfingers  90 7.125020027 -90
lthumb  89.89689403 5.08795885 91.16245106
rclavicle  0 -9.442270133e-015 7.951389973e-016
rhumerus  -25.92370033 29.7989006 -69.56240082
rradius  -2.108707531e-031 2.832348246e-031 126.6679993
rwrist  0 -0 -16.4218998
rhand  -7.920061211e-032 -33.2840004 9.303460121
rfingers  -90 -7.125020027 -90
rthumb  -92.93752616 -24.25625642 -97.11982154
rfemur  -10.55869961 26.56870079 1.345229983
rtibia  -0 0 62.50759888
rfoot  -4.604248382e-032 -16.53230095 -4.924339771
rtoes  5.373923086 19.29304026 -105.8922705
lfemur  -19.80369949 -6.325220108 3.412410021
ltibia  -0 0 50.75009918
lfoot  4.478436739e-032 -9.738220215 1.75793004
ltoes  -4.250644065 -19.5611806 -102.515957
124
root  6.758488633 36.72022181 7.570600134 -7.50201416 -54.40899658 3.267028809
lowerback  13.19270039 -1.118710041 -4.88368988
upperback  3.624880075 -2.126660109 2.099309921
thorax  -3.309050083 -1.084849954 5.306570053
lowerneck  -8.614080429 14.92090034 -1.921569943
upperneck  11.15450001 21.2656002 -7.049069881
head  5.357749939 9.835089684 -0.2988939881
lclavicle  0 -9.442270133e-015 7.951389973e-016
lhumerus  7.425640106 5.626239777 27.27799988
lradius  -1.129053481e-031 -3.34575586e-031 71.3526001
lwrist  -7.062250077e-031 3.641472696e-031 28.74530029
lhand  -1.496451383e-031 -27.76390076 20.11240005
lfingers  90 7.125020027 -90
lthumb  89.89689403 5.08795885 91.16245106
rclavicle  0 -9.442270133e-015 7.951389973e-016
rhumerus  -28.06710052 29.84180069 -69.2901001
rradius  -2.09553552e-031 2.842107479e-031 126.4020004
rwrist  7.062250077e-031 -1.765562519e-031 -16.55139923
rhand  -7.920061211e-032 -33.2840004 9.303460121
rfingers  -90 -7.125020027 -90
rthumb  -92.93752616 -24.25625642 -97.11982154
rfemur  -8.252129555 25.33069992 3.029390097
rtibia  -0 0 62.81930161
rfoot  -4.571111864e-032 -15.06999969 -3.955120087
rtoes  5.373923086 19.29304026 -105.8922705
lfemur  -21.41250038 -7.385930061 4.023159981
ltibia  -0 0 50.67060089
lfoot  5.051361693e-032 -10.57019997 0.455731988
ltoes  -4.250644065 -19.5611806 -102.515957
